<?xml version="1.0" encoding="UTF-8"?>
<!DOCTYPE svg PUBLIC "-//W3C//DTD SVG 1.1//EN" "http://www.w3.org/Graphics/SVG/1.1/DTD/svg11.dtd">
<svg xmlns="http://www.w3.org/2000/svg" version="1.1" width="200px" height="200px" style="shape-rendering:geometricPrecision; text-rendering:geometricPrecision; image-rendering:optimizeQuality; fill-rule:evenodd; clip-rule:evenodd" xmlns:xlink="http://www.w3.org/1999/xlink">
<g><path style="opacity:1" fill="#fdfefe" d="M -0.5,-0.5 C 66.1667,-0.5 132.833,-0.5 199.5,-0.5C 199.5,66.1667 199.5,132.833 199.5,199.5C 132.833,199.5 66.1667,199.5 -0.5,199.5C -0.5,132.833 -0.5,66.1667 -0.5,-0.5 Z"/></g>
<g><path style="opacity:1" fill="#1bd8b8" d="M 74.5,29.5 C 77.187,30.3356 79.5203,31.8356 81.5,34C 87.3551,39.8551 93.1884,45.6884 99,51.5C 106.974,44.1949 114.974,36.8616 123,29.5C 128.473,33.6395 133.306,38.4728 137.5,44C 125.334,57.3329 112.667,70.1662 99.5,82.5C 86.8473,70.3475 74.3473,58.0142 62,45.5C 61.3333,44.5 61.3333,43.5 62,42.5C 66.3702,38.2978 70.5368,33.9645 74.5,29.5 Z"/></g>
<g><path style="opacity:1" fill="#242321" d="M 42.5,61.5 C 43.552,61.3505 44.552,61.5172 45.5,62C 58.0142,74.3473 70.3475,86.8473 82.5,99.5C 70.1394,112.694 57.306,125.361 44,137.5C 38.6966,133.364 33.8632,128.697 29.5,123.5C 37.1756,115.458 44.8423,107.458 52.5,99.5C 44.8333,91.5 37.1667,83.5 29.5,75.5C 33.8551,70.8131 38.1885,66.1464 42.5,61.5 Z"/></g>
<g><path style="opacity:1" fill="#1ad8b8" d="M 153.5,61.5 C 155.484,61.3832 157.15,62.0499 158.5,63.5C 162.366,67.5299 166.033,71.6966 169.5,76C 162.167,83.6667 154.833,91.3333 147.5,99C 154.493,107.326 161.826,115.326 169.5,123C 165.333,128.5 160.5,133.333 155,137.5C 141.667,125.334 128.834,112.667 116.5,99.5C 128.855,86.8126 141.188,74.1459 153.5,61.5 Z"/></g>
<g><path style="opacity:1" fill="#1ad8b8" d="M 98.5,116.5 C 111.721,128.217 124.554,140.55 137,153.5C 137.667,154.5 137.667,155.5 137,156.5C 132.833,160.667 128.667,164.833 124.5,169C 123.5,169.667 122.5,169.667 121.5,169C 114.594,161.091 107.094,153.925 99,147.5C 91.3333,154.833 83.6667,162.167 76,169.5C 71.0183,165.519 66.3516,161.185 62,156.5C 61.3333,155.5 61.3333,154.5 62,153.5C 74.3687,141.298 86.5353,128.965 98.5,116.5 Z"/></g>
</svg>
