<?xml version="1.0" encoding="UTF-8"?>
<svg version="1.1" xmlns="http://www.w3.org/2000/svg" width="1080" height="1080">
<path d="M0 0 C249.48 0 498.96 0 756 0 C756 62.7 756 125.4 756 190 C506.52 190 257.04 190 0 190 C0 127.3 0 64.6 0 0 Z " fill="#FDFEFD" transform="translate(161,445)"/>
<path d="M0 0 C7.32123221 5.47081088 11.9353131 12.90742224 13.75 21.875 C14.67067216 29.96924277 13.31717278 37.51370855 8.5 44.1875 C6.52904711 46.60982557 6.52904711 46.60982557 6.91796875 48.78125 C7.95731464 51.39669318 9.40113021 53.00439879 11.3125 55.0625 C14.75 58.79049296 14.75 58.79049296 14.75 59.875 C9.14 59.875 3.53 59.875 -2.25 59.875 C-2.58 58.885 -2.91 57.895 -3.25 56.875 C-4.405 57.37 -5.56 57.865 -6.75 58.375 C-14.76197098 61.02452838 -25.32244526 61.50554288 -33.25 58.3125 C-41.87242347 53.5989085 -48.58728311 46.45223758 -51.8828125 37.07421875 C-53.56212583 27.01620383 -53.30659802 17.33036663 -48.08203125 8.3984375 C-36.5520243 -7.48297933 -16.239476 -10.4778655 0 0 Z " fill="#070707" transform="translate(443.25,511.125)"/>
<path d="M0 0 C3.18643155 2.49207483 6.13370444 5.14755128 9 8 C8.71855013 11.20419855 7.99711793 12.00246392 5.49609375 14.140625 C4.48675781 14.83671875 3.47742188 15.5328125 2.4375 16.25 C1.42558594 16.95640625 0.41367187 17.6628125 -0.62890625 18.390625 C-1.41136719 18.92171875 -2.19382812 19.4528125 -3 20 C-3.83144531 19.36771484 -3.83144531 19.36771484 -4.6796875 18.72265625 C-5.40414062 18.17480469 -6.12859375 17.62695312 -6.875 17.0625 C-7.59429688 16.51722656 -8.31359375 15.97195313 -9.0546875 15.41015625 C-13.20258331 12.40334825 -17.00170276 12.40256043 -22 13 C-25.57444856 14.72103079 -27.46966849 16.31056903 -29.875 19.4375 C-31.71829288 25.27459411 -32.39365524 32.21211653 -30.23828125 38.0703125 C-28.36096092 41.02356741 -25.94772206 43.1744809 -23 45 C-17.63783934 45.82896913 -11.89508479 46.12265269 -7.25 43 C-6.5075 42.34 -5.765 41.68 -5 41 C-8.3 40.67 -11.6 40.34 -15 40 C-15 35.71 -15 31.42 -15 27 C-6.09 27 2.82 27 12 27 C12 38.55 12 50.1 12 62 C7.05 62 2.1 62 -3 62 C-3.33 60.68 -3.66 59.36 -4 58 C-5.010625 58.66 -6.02125 59.32 -7.0625 60 C-13.9413026 63.42716144 -22.38707899 63.17804869 -29.72265625 61.3046875 C-38.59337313 57.68336569 -44.14309496 51.66720234 -48 43 C-51.22787713 35.03188374 -51.59583492 23.7731771 -49 15.5 C-44.3871809 5.9079229 -36.28496825 0.53816025 -26.75 -3.3125 C-17.37677497 -5.03092459 -8.33783248 -5.00820301 0 0 Z " fill="#060606" transform="translate(725,509)"/>
<path d="M0 0 C5.94 0 11.88 0 18 0 C18.33 11.22 18.66 22.44 19 34 C22.24701178 29.43836179 22.24701178 29.43836179 25.49194336 24.87524414 C28.88888889 20.11111111 28.88888889 20.11111111 30 19 C31.34267413 18.91368126 32.68974322 18.89293527 34.03515625 18.90234375 C34.84404297 18.90556641 35.65292969 18.90878906 36.48632812 18.91210938 C37.33646484 18.92048828 38.18660156 18.92886719 39.0625 18.9375 C39.91650391 18.94201172 40.77050781 18.94652344 41.65039062 18.95117188 C43.76695663 18.96299627 45.88348685 18.98093231 48 19 C45.92737124 22.21815661 43.8152587 25.29381661 41.38671875 28.25390625 C40.94392578 28.79853516 40.50113281 29.34316406 40.04492188 29.90429688 C39.13018753 31.02172056 38.20543277 32.13100687 37.27148438 33.23242188 C35.36293469 35.60894681 34.03594727 37.30801506 33.875 40.40625 C35.54714608 44.26147568 37.86864329 47.53254053 40.3125 50.9375 C41.28807394 52.32139362 42.26333926 53.70550485 43.23828125 55.08984375 C43.70572754 55.75097168 44.17317383 56.41209961 44.65478516 57.09326172 C50 64.66969147 50 64.66969147 50 67 C37.70252728 68.92901533 37.70252728 68.92901533 32 67 C27.14293821 62.84123783 24.54925429 56.73902473 22 51 C20.515 51.495 20.515 51.495 19 52 C18.67 56.95 18.34 61.9 18 67 C12.06 67 6.12 67 0 67 C0 44.89 0 22.78 0 0 Z " fill="#0A0A0A" transform="translate(623,504)"/>
<path d="M0 0 C6.42914261 3.58284258 9.10933769 7.40415474 12.01171875 14.12109375 C12.01171875 18.41109375 12.01171875 22.70109375 12.01171875 27.12109375 C0.79171875 27.12109375 -10.42828125 27.12109375 -21.98828125 27.12109375 C-20.65264509 32.0657301 -20.65264509 32.0657301 -17.98828125 33.12109375 C-12.57622307 33.70423496 -12.57622307 33.70423496 -7.92578125 31.55859375 C-5.98828125 30.12109375 -5.98828125 30.12109375 -2.73828125 30.30859375 C1.20697046 31.16339829 5.10792867 32.09378057 9.01171875 33.12109375 C8.28825908 37.75734937 5.73508694 39.62491075 2.23828125 42.50390625 C-4.86339023 47.66196237 -12.38780838 48.02966711 -20.98828125 47.12109375 C-29.76894198 45.097567 -33.93375546 40.6502182 -38.80078125 33.43359375 C-42.14812659 26.91507914 -41.8563089 19.19218362 -39.73828125 12.30859375 C-37.02359346 5.19035711 -32.5623873 1.63088343 -25.98828125 -1.87890625 C-17.78071784 -4.61476072 -7.73200417 -3.69346976 0 0 Z " fill="#060606" transform="translate(784.98828125,524.87890625)"/>
<path d="M0 0 C3.64781644 3.17353055 6.58886767 6.30049723 7.48461914 11.1862793 C7.64854155 13.83031027 7.69108627 16.44096146 7.66796875 19.08984375 C7.66796875 20.87765158 7.68037041 22.66551597 7.70703125 24.453125 C7.69857178 25.62742065 7.69857178 25.62742065 7.68994141 26.82543945 C7.80644043 27.46956787 7.92293945 28.11369629 8.04296875 28.77734375 C9.03296875 29.43734375 10.02296875 30.09734375 11.04296875 30.77734375 C11.26434268 33.40431439 11.324589 35.78628339 11.23046875 38.40234375 C11.21016602 39.46195313 11.21016602 39.46195313 11.18945312 40.54296875 C11.15407915 42.28808503 11.10027096 44.03280983 11.04296875 45.77734375 C8.23069253 46.71476916 6.45550031 46.91205219 3.54296875 46.90234375 C2.76953125 46.90492188 1.99609375 46.9075 1.19921875 46.91015625 C-0.95703125 46.77734375 -0.95703125 46.77734375 -3.95703125 45.77734375 C-6.95703125 41.44401042 -6.95703125 41.44401042 -6.95703125 38.77734375 C-7.46492187 39.18726563 -7.9728125 39.5971875 -8.49609375 40.01953125 C-14.32062595 44.57880927 -19.19610681 47.3767956 -26.87109375 47.15625 C-32.17305087 46.19316041 -35.92668677 42.91072268 -39.45703125 39.02734375 C-41.42487781 34.76367621 -41.76007381 31.39483848 -40.95703125 26.77734375 C-39.34152154 22.49953998 -36.99850172 19.03581254 -32.95703125 16.77734375 C-28.59867424 15.07407779 -25.00224018 14.52968883 -20.33203125 14.58984375 C-19.22601562 14.59628906 -18.12 14.60273437 -16.98046875 14.609375 C-14.46146103 14.74931987 -12.35689112 15.04567916 -9.95703125 15.77734375 C-11.20679881 12.12417704 -11.62801878 10.99668539 -14.95703125 8.77734375 C-20.92277451 8.1601979 -24.65884185 9.191718 -29.9765625 11.90234375 C-31.95703125 12.77734375 -31.95703125 12.77734375 -34.95703125 12.77734375 C-35.49155685 11.53313728 -36.00911736 10.28163439 -36.51953125 9.02734375 C-36.80957031 8.33125 -37.09960938 7.63515625 -37.3984375 6.91796875 C-38.06372721 4.36846692 -38.06461267 3.17211438 -36.95703125 0.77734375 C-27.12602801 -5.87243715 -10.16877456 -5.50114034 0 0 Z " fill="#080808" transform="translate(563.95703125,525.22265625)"/>
<path d="M0 0 C5.61 0 11.22 0 17 0 C17.04898437 2.20300781 17.09796875 4.40601563 17.1484375 6.67578125 C17.20245536 8.8105343 17.25975955 10.94517558 17.31738281 13.07983398 C17.35565347 14.56282212 17.39050978 16.04590248 17.421875 17.52905273 C17.467568 19.66163072 17.52555338 21.79357491 17.5859375 23.92578125 C17.63306885 25.85031128 17.63306885 25.85031128 17.68115234 27.8137207 C17.76379228 31.15387459 17.76379228 31.15387459 20 34 C23.20412362 34.41792917 25.25059675 34.37563456 28.15722656 32.91870117 C30.89057604 30.07272958 30.54587077 27.81541504 30.609375 23.92578125 C30.62591125 23.2419487 30.64244751 22.55811615 30.65948486 21.8535614 C30.7080032 19.67311664 30.72934191 17.4933693 30.75 15.3125 C30.77815685 13.83264713 30.8080839 12.3528268 30.83984375 10.87304688 C30.91709416 7.24837616 30.95756683 3.62591422 31 0 C36.61 0 42.22 0 48 0 C48.05607422 3.43019531 48.05607422 3.43019531 48.11328125 6.9296875 C48.159472 9.14056046 48.21071425 11.35126243 48.26245117 13.56201172 C48.2957373 15.10031779 48.32375778 16.63874707 48.34643555 18.17724609 C48.37991558 20.38692818 48.4322231 22.59547735 48.48828125 24.8046875 C48.49467117 25.49432587 48.5010611 26.18396423 48.50764465 26.89450073 C48.54025714 29.04685389 48.54025714 29.04685389 49 32 C49.99 32.66 50.98 33.32 52 34 C52.22137393 36.62697064 52.28162025 39.00893964 52.1875 41.625 C52.16719727 42.68460938 52.16719727 42.68460938 52.14648438 43.765625 C52.1111104 45.51074128 52.05730221 47.25546608 52 49 C47.2281276 50.33143761 42.36976989 50.81071075 37.625 49.1875 C36 48 36 48 34 45 C34 44.01 34 43.02 34 42 C33.34 42 32.68 42 32 42 C31.67 42.99 31.34 43.98 31 45 C24.55655067 49.7066348 17.83657343 51.17738502 10 50 C5.12910716 47.86898438 2.09659298 44.85871438 0 40 C-0.24050903 38.00042725 -0.24050903 38.00042725 -0.22705078 35.87402344 C-0.22689972 35.07349548 -0.22674866 34.27296753 -0.22659302 33.44818115 C-0.21110916 32.16672211 -0.21110916 32.16672211 -0.1953125 30.859375 C-0.1924826 29.97719299 -0.18965271 29.09501099 -0.18673706 28.18609619 C-0.17555961 25.37392501 -0.15045951 22.5620746 -0.125 19.75 C-0.11496705 17.84115044 -0.10584175 15.93229588 -0.09765625 14.0234375 C-0.07562824 9.34883511 -0.04111511 4.67447191 0 0 Z " fill="#080808" transform="translate(465,522)"/>
<path d="M0 0 C3.0981743 2.07315644 5.62548974 4.10202972 6.50170898 7.75830078 C6.95401584 11.814285 7.00750285 15.77851622 6.98046875 19.85546875 C6.9790538 20.66823273 6.97763885 21.4809967 6.97618103 22.31838989 C6.97061585 24.89589226 6.9580699 27.47330545 6.9453125 30.05078125 C6.940293 31.80598832 6.93573088 33.56119677 6.93164062 35.31640625 C6.9215118 39.60292598 6.90192981 43.88925463 6.8828125 48.17578125 C1.2728125 48.17578125 -4.3371875 48.17578125 -10.1171875 48.17578125 C-10.16617188 45.96117187 -10.21515625 43.7465625 -10.265625 41.46484375 C-10.31961242 39.32349808 -10.37692854 37.18226567 -10.43457031 35.04101562 C-10.47288748 33.55119236 -10.50773558 32.06127571 -10.5390625 30.57128906 C-10.58465479 28.43130077 -10.64265624 26.29195689 -10.703125 24.15234375 C-10.75025635 22.2199585 -10.75025635 22.2199585 -10.79833984 20.24853516 C-10.80177018 17.0709662 -10.80177018 17.0709662 -13.1171875 15.17578125 C-16.615953 14.71942053 -18.40044935 14.64333793 -21.27441406 16.77832031 C-23.70503618 19.94057643 -23.65704141 21.94745414 -23.7265625 25.91015625 C-23.75878906 27.20566406 -23.79101562 28.50117187 -23.82421875 29.8359375 C-23.83896219 31.19921427 -23.85327972 32.5624957 -23.8671875 33.92578125 C-23.89535564 35.30472501 -23.92528428 36.683634 -23.95703125 38.0625 C-24.0277468 41.43327475 -24.07472844 44.80453218 -24.1171875 48.17578125 C-29.7271875 48.17578125 -35.3371875 48.17578125 -41.1171875 48.17578125 C-41.1171875 32.33578125 -41.1171875 16.49578125 -41.1171875 0.17578125 C-35.8371875 0.17578125 -30.5571875 0.17578125 -25.1171875 0.17578125 C-24.7871875 1.49578125 -24.4571875 2.81578125 -24.1171875 4.17578125 C-22.725 3.21671875 -22.725 3.21671875 -21.3046875 2.23828125 C-15.32943996 -1.6280554 -6.76625014 -2.63409369 0 0 Z " fill="#050505" transform="translate(846.1171875,522.82421875)"/>
<path d="M0 0 C3.96270089 1.82763412 6.71694538 4.41918074 9.75 7.5 C10.25660156 7.99886719 10.76320313 8.49773438 11.28515625 9.01171875 C15 12.74658861 15 12.74658861 15 15 C13.70703125 16.26953125 13.70703125 16.26953125 11.8125 17.8125 C5.50477121 23.15418024 -0.20009963 29.12052783 -6 35 C-4.54990314 38.33121544 -2.72522324 40.52056562 -0.15625 43.07421875 C0.59527344 43.82380859 1.34679687 44.57339844 2.12109375 45.34570312 C3.29865234 46.50489258 3.29865234 46.50489258 4.5 47.6875 C5.28503906 48.47189453 6.07007813 49.25628906 6.87890625 50.06445312 C10.59448109 53.99336987 10.59448109 53.99336987 15 57 C13.38989473 61.07376031 10.46177729 63.76507069 7.375 66.75 C6.859375 67.25660156 6.34375 67.76320313 5.8125 68.28515625 C4.54616661 69.52803902 3.2736856 70.76465276 2 72 C-1.04581486 70.63886987 -3.13839026 69.10669904 -5.48339844 66.74365234 C-6.47397247 65.75285172 -6.47397247 65.75285172 -7.48455811 64.74203491 C-8.18574768 64.03052277 -8.88693726 63.31901062 -9.609375 62.5859375 C-10.33618469 61.85629791 -11.06299438 61.12665833 -11.81182861 60.37490845 C-14.12929198 58.0462612 -16.4396995 55.71075174 -18.75 53.375 C-20.32115444 51.79381347 -21.89276371 50.21307875 -23.46484375 48.6328125 C-27.31518653 44.7604331 -31.15976117 40.88239829 -35 37 C-33.63886987 33.95418514 -32.10669904 31.86160974 -29.74365234 29.51660156 C-29.08311859 28.85621887 -28.42258484 28.19583618 -27.74203491 27.51544189 C-27.03052277 26.81425232 -26.31901062 26.11306274 -25.5859375 25.390625 C-24.49147812 24.30041046 -24.49147812 24.30041046 -23.37490845 23.18817139 C-21.0462612 20.87070802 -18.71075174 18.5603005 -16.375 16.25 C-14.79381347 14.67884556 -13.21307875 13.10723629 -11.6328125 11.53515625 C-7.7604331 7.68481347 -3.88239829 3.84023883 0 0 Z " fill="#12D8B9" transform="translate(333,504)"/>
<path d="M0 0 C3.04581486 1.36113013 5.13839026 2.89330096 7.48339844 5.25634766 C8.14378113 5.91688141 8.80416382 6.57741516 9.48455811 7.25796509 C10.18574768 7.96947723 10.88693726 8.68098938 11.609375 9.4140625 C12.69958954 10.50852188 12.69958954 10.50852188 13.81182861 11.62509155 C16.12929198 13.9537388 18.4396995 16.28924826 20.75 18.625 C22.32115444 20.20618653 23.89276371 21.78692125 25.46484375 23.3671875 C29.31518653 27.2395669 33.15976117 31.11760171 37 35 C35.63886987 38.04581486 34.10669904 40.13839026 31.74365234 42.48339844 C31.08311859 43.14378113 30.42258484 43.80416382 29.74203491 44.48455811 C29.03052277 45.18574768 28.31901062 45.88693726 27.5859375 46.609375 C26.85629791 47.33618469 26.12665833 48.06299438 25.37490845 48.81182861 C23.0462612 51.12929198 20.71075174 53.4396995 18.375 55.75 C16.79381347 57.32115444 15.21307875 58.89276371 13.6328125 60.46484375 C9.7604331 64.31518653 5.88239829 68.15976117 2 72 C-1.96270089 70.17236588 -4.71694538 67.58081926 -7.75 64.5 C-8.25660156 64.00113281 -8.76320312 63.50226562 -9.28515625 62.98828125 C-13 59.25341139 -13 59.25341139 -13 57 C-11.70703125 55.73046875 -11.70703125 55.73046875 -9.8125 54.1875 C-3.50477121 48.84581976 2.20009963 42.87947217 8 37 C6.48623919 33.43235715 4.39486871 31.16293713 1.6484375 28.453125 C0.79765625 27.60878906 -0.053125 26.76445313 -0.9296875 25.89453125 C-2.26386719 24.58548828 -2.26386719 24.58548828 -3.625 23.25 C-4.97078125 21.91775391 -4.97078125 21.91775391 -6.34375 20.55859375 C-8.55807004 18.36783031 -10.77692435 16.18187237 -13 14 C-9.81968878 10.2341894 -6.64858175 6.51561011 -3.125 3.0625 C-2.23167969 2.18271484 -2.23167969 2.18271484 -1.3203125 1.28515625 C-0.66675781 0.64900391 -0.66675781 0.64900391 0 0 Z " fill="#262523" transform="translate(228,504)"/>
<path d="M0 0 C2.36550926 0.98448046 3.70524002 2.12668765 5.52915955 3.92414856 C6.19276993 4.57184708 6.85638031 5.21954559 7.5401001 5.88687134 C8.24442673 6.59099655 8.94875336 7.29512177 9.67442322 8.02058411 C10.40360458 8.74215195 11.13278595 9.46371979 11.88406372 10.20715332 C13.42180916 11.7340978 14.95559913 13.26503457 16.48570251 14.79963684 C18.8370055 17.15191416 21.2088213 19.48205916 23.58262634 21.81159973 C25.07285743 23.29662565 26.5618338 24.78291197 28.04942322 26.27058411 C28.763871 26.96863663 29.47831879 27.66668915 30.2144165 28.38589478 C30.86226608 29.04304977 31.51011566 29.70020477 32.17759705 30.37727356 C32.75399429 30.95161636 33.33039154 31.52595917 33.92425537 32.1177063 C35.02989197 33.84480286 35.02989197 33.84480286 34.86465454 35.88671875 C33.50002928 39.08769005 30.94721051 41.23572455 28.46739197 43.59480286 C27.94725525 44.10140442 27.42711853 44.60800598 26.89122009 45.12995911 C25.61079113 46.37514691 24.32121642 47.61091787 23.02989197 48.84480286 C19.55195112 47.36521257 17.42497125 45.41376837 14.84239197 42.67683411 C14.06122009 41.86665833 13.28004822 41.05648254 12.47520447 40.22175598 C10.83913386 38.50597267 9.20894869 36.78455885 7.58457947 35.05769348 C6.80340759 34.25138489 6.02223572 33.44507629 5.21739197 32.61433411 C4.50969666 31.86772522 3.80200134 31.12111633 3.07286072 30.35188293 C1.18373763 28.63981788 1.18373763 28.63981788 -0.97718811 28.87507629 C-3.49077892 30.09815392 -5.07998651 31.59975202 -7.04432678 33.59089661 C-7.79391663 34.3456427 -8.54350647 35.10038879 -9.31581116 35.87800598 C-10.47500061 37.06813293 -10.47500061 37.06813293 -11.65760803 38.28230286 C-12.44200256 39.07185364 -13.22639709 39.86140442 -14.03456116 40.67488098 C-17.96099782 44.41786352 -17.96099782 44.41786352 -20.97010803 48.84480286 C-24.1386555 48.26788808 -25.75237262 47.42833399 -27.98573303 45.12214661 C-28.51424866 44.58396301 -29.04276428 44.04577942 -29.58729553 43.49128723 C-30.12612366 42.92732239 -30.66495178 42.36335754 -31.22010803 41.78230286 C-31.77440491 41.21447083 -32.32870178 40.64663879 -32.89979553 40.06159973 C-34.26345017 38.66267816 -35.6177122 37.25461172 -36.97010803 35.84480286 C-31.08304193 28.85398161 -24.77734519 22.36054347 -18.34706116 15.87165833 C-17.00348621 14.51137062 -15.66532071 13.14572026 -14.33241272 11.77497864 C-12.39801241 9.78613485 -10.44796266 7.81395518 -8.49354553 5.84480286 C-7.60123734 4.9184906 -7.60123734 4.9184906 -6.69090271 3.97346497 C-2.49925898 -0.19688152 -2.49925898 -0.19688152 0 0 Z " fill="#12D8B9" transform="translate(281.97010803222656,557.1551971435547)"/>
<path d="M0 0 C1.40234375 1.328125 1.40234375 1.328125 2.9375 3.25 C6.22838561 7.1526528 9.6390629 10.89479223 13.1875 14.5625 C13.69853271 15.11131836 14.20956543 15.66013672 14.73608398 16.22558594 C16.36926857 17.95443633 16.36926857 17.95443633 19 20 C22.94207975 19.80434812 24.89012437 17.45669744 27.546875 14.74609375 C28.39121094 13.89208984 29.23554688 13.03808594 30.10546875 12.15820312 C30.97816406 11.26037109 31.85085938 10.36253906 32.75 9.4375 C33.63816406 8.53580078 34.52632813 7.63410156 35.44140625 6.70507812 C37.63448315 4.47662902 39.82026044 2.24148407 42 0 C45.76363368 1.76199891 48.32604243 3.96201534 51.3125 6.875 C52.21613281 7.73867188 53.11976563 8.60234375 54.05078125 9.4921875 C56 12 56 12 55.81428528 13.93803406 C54.86222824 16.34887119 53.73814611 17.6550223 51.9206543 19.49926758 C51.27295578 20.16287796 50.62525726 20.82648834 49.95793152 21.51020813 C49.2538063 22.21453476 48.54968109 22.91886139 47.82421875 23.64453125 C47.10265091 24.37371262 46.38108307 25.10289398 45.63764954 25.85417175 C44.11070505 27.3919172 42.57976829 28.92570716 41.04516602 30.45581055 C38.6928887 32.80711354 36.3627437 35.17892933 34.03320312 37.55273438 C32.54817721 39.04296546 31.06189089 40.53194183 29.57421875 42.01953125 C28.87616623 42.73397903 28.17811371 43.44842682 27.45890808 44.18452454 C26.80175308 44.83237411 26.14459808 45.48022369 25.4675293 46.14770508 C24.89318649 46.72410233 24.31884369 47.30049957 23.72709656 47.8943634 C22 49 22 49 20.00672913 48.88043213 C17.62376319 47.8349299 16.2547534 46.61581408 14.42480469 44.76538086 C13.74440125 44.08475082 13.0639978 43.40412079 12.36297607 42.7028656 C11.63991272 41.96431839 10.91684937 41.22577118 10.171875 40.46484375 C9.42286926 39.71159317 8.67386353 38.95834259 7.90216064 38.18226624 C5.51097956 35.77428956 3.13043835 33.35609255 0.75 30.9375 C-0.86910177 29.30335262 -2.48888532 27.66988045 -4.109375 26.03710938 C-8.08086182 22.03254154 -12.0436621 18.01953193 -16 14 C-15.04232139 12.87912498 -14.08413408 11.75868458 -13.12573242 10.63842773 C-12.5921965 10.01443588 -12.05866058 9.39044403 -11.50895691 8.74754333 C-9.82705728 6.79971271 -8.10702874 4.90722535 -6.3125 3.0625 C-5.75175781 2.47597656 -5.19101563 1.88945312 -4.61328125 1.28515625 C-3 0 -3 0 0 0 Z " fill="#12D8B9" transform="translate(261,474)"/>
<path d="M0 0 C5.28 0 10.56 0 16 0 C16.33 2.31 16.66 4.62 17 7 C17.763125 6.21625 18.52625 5.4325 19.3125 4.625 C24.46363427 -0.40634045 24.91574505 0 33 0 C33 5.28 33 10.56 33 16 C28.01953125 16.68359375 28.01953125 16.68359375 23.0390625 17.3671875 C19.90433341 17.7302585 19.90433341 17.7302585 18 20 C17.62703444 23.00972657 17.62703444 23.00972657 17.5859375 26.5390625 C17.54726563 27.84101562 17.50859375 29.14296875 17.46875 30.484375 C17.43729237 31.86457862 17.40604509 33.24478704 17.375 34.625 C17.33682066 36.01304541 17.29776895 37.40106711 17.2578125 38.7890625 C17.16327312 42.19248027 17.08053771 45.59622212 17 49 C11.39 49 5.78 49 0 49 C0 32.83 0 16.66 0 0 Z " fill="#090909" transform="translate(583,522)"/>
<path d="M0 0 C5.26594344 1.85856827 7.79395768 4.60314196 11 9 C11.93249614 11.79748841 12.13476152 13.54320881 12.125 16.4375 C12.12886719 17.58025391 12.12886719 17.58025391 12.1328125 18.74609375 C12.00276015 20.95315859 11.60856199 22.87969276 11 25 C7.125 24.125 7.125 24.125 6 23 C3.30764224 22.76321284 0.63501844 22.57801975 -2.0625 22.4375 C-3.20041992 22.37272461 -3.20041992 22.37272461 -4.36132812 22.30664062 C-6.24065438 22.20026367 -8.12030244 22.09960066 -10 22 C-9.51789063 22.53109375 -9.03578125 23.0621875 -8.5390625 23.609375 C-7.90742188 24.31578125 -7.27578125 25.0221875 -6.625 25.75 C-5.99851562 26.44609375 -5.37203125 27.1421875 -4.7265625 27.859375 C-3.12494817 29.84508688 -2.03479932 31.67954093 -1 34 C-8.94602851 34.7790224 -8.94602851 34.7790224 -12.875 31.875 C-17.95733334 24.99890195 -18.87831711 19.47518982 -18 11 C-16.43277313 5.91571002 -14.15990258 4.11992693 -10 1 C-6.79610447 -0.60194777 -3.48419843 -0.3516761 0 0 Z " fill="#F4F4F4" transform="translate(427,521)"/>
<path d="M0 0 C11.22 0 22.44 0 34 0 C34 0.33 34 0.66 34 1 C29.05 1 24.1 1 19 1 C19 1.66 19 2.32 19 3 C13.68300795 6.54466136 10.41428057 7.84121712 4 7 C1.5 5.1875 1.5 5.1875 0 3 C0 2.01 0 1.02 0 0 Z " fill="#F0F0F0" transform="translate(763,552)"/>
<path d="M0 0 C0.3125 2.8125 0.3125 2.8125 0 6 C-2.89424065 8.63112786 -4.78662557 8.98191742 -8.6875 9.3125 C-12 9 -12 9 -14 7 C-14.4375 4.5625 -14.4375 4.5625 -14 2 C-9.78263897 -2.08131713 -5.31193346 -0.9605457 0 0 Z " fill="#EDEDED" transform="translate(554,550)"/>
<path d="M0 0 C2.875 1.75 2.875 1.75 5 4 C5 5.32 5 6.64 5 8 C-0.28 8 -5.56 8 -11 8 C-10 3 -10 3 -8.3125 1.1875 C-5.24756099 -0.3863876 -3.40910465 -0.48701495 0 0 Z " fill="#DBDBDB" transform="translate(773,534)"/>
<path d="M0 0 C0.66 0.33 1.32 0.66 2 1 C-0.97 3.97 -3.94 6.94 -7 10 C-7 7 -7 7 -4.625 4.4375 C-3.75875 3.633125 -2.8925 2.82875 -2 2 C-1.34 1.34 -0.68 0.68 0 0 Z " fill="#2E2E2E" transform="translate(755,525)"/>
<path d="M0 0 C0.66 0.33 1.32 0.66 2 1 C-0.64 3.64 -3.28 6.28 -6 9 C-6 6 -6 6 -3.5625 3.375 C-2.716875 2.59125 -1.87125 1.8075 -1 1 C-0.67 0.67 -0.34 0.34 0 0 Z " fill="#333333" transform="translate(531,542)"/>
</svg>
