<?xml version="1.0"?>
<svg xmlns="http://www.w3.org/2000/svg" id="svg4507" version="1.1" viewBox="12.7999968 6.1999872279999995 37.1999907 37.599922543999995" style="max-height: 500px;background-color:transparent;" width="37.1999907" height="37.599922543999995">
  <defs id="defs4501">
    <clipPath clipPathUnits="userSpaceOnUse" id="clipPath4547">
      <path d="M 0,141.732 H 566.929 V 0 H 0 Z" id="path4545"/>
    </clipPath>
  </defs>
  <metadata id="metadata4504">
    
      
        image/svg+xml
        
        
      
    
  </metadata>
  <g transform="translate(-114.6905,-392.95243)" id="layer1">
    <g id="g4517" transform="matrix(0.35277777,0,0,-0.35277777,114.6905,442.95233)">
      <path d="M 0,0 H 566.929 V 141.732 H 0 Z" style="fill:none;fill-opacity:1;fill-rule:nonzero;stroke:none" id="path4519"/>
      <g id="g4521" transform="translate(89.6302,104.078)">
        <path d="M 0,0 -16.788,16.788 -27.434,6.144 0,-21.289 27.434,6.144 16.789,16.788 Z" style="fill:#0ed8b8;fill-opacity:1;fill-rule:nonzero;stroke:none" id="path4523"/>
      </g>
      <g id="g4525" transform="translate(89.6302,37.6546)">
        <path d="M 0,0 16.789,-16.788 27.434,-6.144 0,21.289 -27.434,-6.144 -16.788,-16.788 Z" style="fill:#0ed8b8;fill-opacity:1;fill-rule:nonzero;stroke:none" id="path4527"/>
      </g>
      <g id="g4529" transform="translate(122.8416,70.8666)">
        <path d="M 0,0 16.789,16.789 6.145,27.433 -21.289,0 6.145,-27.434 16.789,-16.789 Z" style="fill:#0ed8b8;fill-opacity:1;fill-rule:nonzero;stroke:none" id="path4531"/>
      </g>
      <g id="g4533" transform="translate(56.4188,70.8666)">
        <path d="M 0,0 -16.789,-16.789 -6.145,-27.434 21.289,0 -6.145,27.433 -16.789,16.789 Z" style="fill:#22211f;fill-opacity:1;fill-rule:nonzero;stroke:none" id="path4535"/>
      </g>
      <g id="g4537" transform="translate(218.116,60.4486)">
        <path d="m 0,0 -33.952,44.649 h -12.464 v -66.855 h 13.324 L -33.045,22.443 0.86,-22.206 H 13.372 V 44.649 H 0 Z" style="fill:#22211f;fill-opacity:1;fill-rule:nonzero;stroke:none" id="path4539"/>
      </g>
      <g id="g4541">
        <g id="g4543" clip-path="url(#clipPath4547)">
          <g id="g4549" transform="translate(250.8695,65.7484)">
            <path d="m 0,0 c 1.099,5.731 4.537,9.264 10.411,9.264 5.349,0 8.93,-3.343 10.076,-9.264 z m 10.506,20.009 c -13.848,0 -23.399,-9.933 -23.399,-24.498 0,-14.564 9.837,-24.211 24.019,-24.211 7.785,0 14.471,2.197 19.723,7.02 l -7.306,8.023 c -3.342,-2.818 -7.689,-4.442 -11.7,-4.442 -5.873,0 -10.553,2.913 -11.89,9.599 H 32.76 c 0.143,1.05 0.238,2.77 0.238,4.203 C 32.95,10.124 23.83,20.009 10.506,20.009" style="fill:#22211f;fill-opacity:1;fill-rule:nonzero;stroke:none" id="path4551"/>
          </g>
          <g id="g4553" transform="translate(313.3748,48.6537)">
            <path d="m 0,0 c -7.02,0 -12.273,5.252 -12.273,12.749 0,7.497 5.253,12.75 12.273,12.75 7.02,0 12.32,-5.253 12.32,-12.75 C 12.32,5.252 7.02,0 0,0 m 0,37.104 c -14.374,0 -24.976,-10.41 -24.976,-24.355 0,-13.944 10.602,-24.354 24.976,-24.354 14.422,0 25.07,10.41 25.07,24.354 0,13.945 -10.648,24.355 -25.07,24.355" style="fill:#22211f;fill-opacity:1;fill-rule:nonzero;stroke:none" id="path4555"/>
          </g>
          <g id="g4557" transform="translate(397.9422,105.0975)">
            <path d="M 0,0 H -15.377 L -30.181,-22.921 -44.889,0 h -15.663 l 22.205,-32.902 -22.826,-33.953 h 15.377 l 15.425,23.829 15.377,-23.829 H 0.62 l -22.873,33.953 z" style="fill:#22211f;fill-opacity:1;fill-rule:nonzero;stroke:none" id="path4559"/>
          </g>
          <g id="g4561" transform="translate(420.2879,48.6537)">
            <path d="m 0,0 c -7.307,0 -11.938,5.683 -11.938,12.749 0,7.067 4.631,12.75 11.938,12.75 7.114,0 11.938,-5.444 11.938,-12.75 C 11.938,5.443 7.114,0 0,0 m 11.556,30.752 c -3.056,3.772 -7.497,6.352 -13.848,6.352 -12.751,0 -22.397,-10.458 -22.397,-24.355 0,-13.895 9.646,-24.354 22.397,-24.354 6.351,0 10.84,2.58 13.848,6.304 v -5.11 H 23.733 V 35.863 H 11.556 Z" style="fill:#22211f;fill-opacity:1;fill-rule:nonzero;stroke:none" id="path4563"/>
          </g>
          <g id="g4565" transform="translate(509.0574,85.7572)">
            <path d="M 0,0 C -6.065,0 -12.129,-2.053 -15.711,-7.927 -18.814,-3.009 -24.306,0 -30.992,0 c -5.253,0 -10.315,-1.768 -13.61,-6.685 v 5.444 H -56.73 v -46.273 h 12.462 v 25.356 c 0,6.972 4.442,10.459 9.79,10.459 5.683,0 9.026,-3.678 9.026,-10.363 v -25.452 h 12.463 v 25.356 c 0,6.972 4.441,10.459 9.79,10.459 5.635,0 9.024,-3.678 9.024,-10.363 v -25.452 h 12.417 v 29.463 C 18.242,-7.306 10.888,0 0,0" style="fill:#22211f;fill-opacity:1;fill-rule:nonzero;stroke:none" id="path4567"/>
          </g>
        </g>
      </g>
    </g>
  </g>
</svg>
