<svg xmlns="http://www.w3.org/2000/svg" width="218" height="44.702" viewBox="0 0 218 44.702"><defs><style>.a{fill:#00d9b8;}.b{fill:#fff;}</style></defs><g transform="translate(109 22.351)"><g transform="translate(-109 -22.351)"><path class="a" d="M23.135,7.5,15.63,0,10.871,4.758,23.135,17.022,35.4,4.758,30.64,0Z" transform="translate(-0.784)"/><path class="a" d="M23.135,39.349l7.5,7.5L35.4,42.1,23.135,29.832,10.871,42.1l4.759,4.758Z" transform="translate(-0.784 -2.151)"/><path class="a" d="M39.349,23.135l7.5-7.5L42.1,10.871,29.832,23.135,42.1,35.4l4.758-4.758Z" transform="translate(-2.152 -0.784)"/><path class="b" d="M7.5,23.135,0,30.64,4.758,35.4,17.021,23.135,4.758,10.871,0,15.63Z" transform="translate(0 -0.784)"/><path class="b" d="M90.354,37.482H84.761L69.6,17.524l-.021,19.959H63.627V7.6H69.2l15.177,19.96V7.6h5.977Z" transform="translate(-4.589 -0.548)"/><path class="b" d="M101.321,25.859h9.158c-.513-2.647-2.114-4.141-4.5-4.141-2.626,0-4.162,1.579-4.653,4.141m14.751,1.921a15.985,15.985,0,0,1-.107,1.879H101.3a4.992,4.992,0,0,0,5.315,4.291,8.365,8.365,0,0,0,5.23-1.985l3.266,3.585a12.554,12.554,0,0,1-8.817,3.139c-6.34,0-10.737-4.313-10.737-10.824s4.27-10.951,10.46-10.951c5.956,0,10.033,4.419,10.055,10.865" transform="translate(-6.892 -1.22)"/><path class="b" d="M125.528,27.8a5.5,5.5,0,1,0,10.994,0,5.5,5.5,0,1,0-10.994,0m16.693,0c0,6.233-4.76,10.887-11.208,10.887-6.425,0-11.164-4.653-11.164-10.887s4.74-10.887,11.164-10.887c6.448,0,11.208,4.654,11.208,10.887" transform="translate(-8.643 -1.22)"/><path class="b" d="M160.551,22.305l10.225,15.177H163.8L156.922,26.83l-6.9,10.652h-6.874l10.2-15.177L143.43,7.6h7l6.575,10.247L163.625,7.6H170.5Z" transform="translate(-10.324 -0.548)"/><path class="b" d="M177.195,27.8c0,3.159,2.07,5.7,5.336,5.7,3.181,0,5.337-2.434,5.337-5.7s-2.156-5.7-5.337-5.7c-3.266,0-5.336,2.54-5.336,5.7m15.946,10.353H187.7V35.87a7.587,7.587,0,0,1-6.19,2.818c-5.7,0-10.012-4.675-10.012-10.887s4.312-10.887,10.012-10.887a7.571,7.571,0,0,1,6.19,2.839V17.469h5.444Z" transform="translate(-12.368 -1.22)"/><path class="b" d="M232.339,24.983V38.154h-5.551V26.776c0-2.988-1.515-4.632-4.034-4.632-2.39,0-4.376,1.559-4.376,4.676V38.154h-5.572V26.776c0-2.988-1.494-4.632-4.034-4.632-2.391,0-4.376,1.559-4.376,4.676V38.154h-5.572V17.469h5.423V19.9a6.93,6.93,0,0,1,6.084-2.989,7.837,7.837,0,0,1,6.831,3.544,7.782,7.782,0,0,1,7.023-3.544c4.867,0,8.154,3.266,8.154,8.069" transform="translate(-14.339 -1.22)"/></g></g></svg>